<?xml version="1.0" encoding="UTF-8"?>
<svg width="100px" height="100px" viewBox="0 0 100 100" version="1.1" xmlns="http://www.w3.org/2000/svg" xmlns:xlink="http://www.w3.org/1999/xlink">
    <title>paige-solid</title>
    <g id="Symbols" stroke="none" stroke-width="1" fill="none" fill-rule="evenodd">
        <g id="paige" fill="#1A1A1F">
            <path d="M66.806,96.9667843 C75.597,93.579809 81.575,88.8907606 85.408,84.10262 C85.412,84.0986563 85.415,84.0956835 85.417,84.0917198 C91.294,76.7420429 92.121,69.1624718 90.313,65.7061318 C86.447,58.315827 76.426,62.7452535 72.304,64.143446 C69.624,65.0511316 67.118,66.2402394 64.97,66.9685679 C63.072,67.612668 61.452,67.8970629 60.241,67.3094455 C57.87,66.1599746 57.946,64.5348607 57.775,63.0663126 C57.716,62.5540053 57.627,62.0615165 57.394,61.6136192 C56.493,59.8844584 54.364,61.2162591 53.487,59.580245 C53.241,58.8935352 53.464,58.2613263 53.83,57.7460462 C53.833,57.7410916 53.835,57.7391098 53.835,57.7391098 C53.958,57.5656982 54.098,57.4051687 54.242,57.2604939 C54.331,57.1703199 54.784,56.4657735 53.981,56.4717191 C53.073,56.4766737 51.87,56.4003726 50.861,56.0426493 C49.42,55.5343058 49.348,55.0467716 49.54,54.3243886 L49.541,54.3233977 C49.603,54.0895398 49.692,53.8348726 49.772,53.5445321 C50.215,51.6360141 48.251,51.0989338 46.958,50.9770502 C45.665,50.8561576 44.189,50.6946371 43.655,49.3281541 C43.121,47.9616711 45.249,45.8807325 45.971,42.2153078 C46.316,40.4633557 46.33,38.5092552 46.182,36.6195648 C45.913,33.2197075 45.116,30.0309168 44.759,28.6059693 C44.675,28.2710373 44.594,27.9331325 44.517,27.5962186 C43.991,25.3121408 43.624,23.0003171 43.561,20.8708233 C43.588,20.8450593 43.617,20.8192953 43.645,20.7915494 C49.766,27.7874668 59.664,33.0274684 76.288,36.6225376 C92.252,40.0749138 101.759,50.4231242 95.784,70.0166475 C95.675,70.2614055 95.569,70.5061635 95.462,70.7509216 C98.375,64.4298228 100,57.4031868 100,50 C100,22.3849538 77.409,0 49.541,0 C24.964,0 4.491,17.4125015 0,40.4673194 L20.461,40.4673194 C29.926,40.4673194 32.085,39.4337865 34.701,37.0734076 L40.911,31.0753498 C40.911,31.0753498 42.881,36.1984225 41.62,41.0034088 L19.894,62.0179159 L14.532,56.5787388 L26.015,45.4734631 L14.171,45.4734631 C4.777,45.4734631 -2.548,52.5853185 1.535,65.3533632 C1.754,66.0262 2.416,67.9069721 2.52,68.1695668 C4.501,68.1695668 27.989,68.1705577 27.989,68.1705577 L27.989,68.1715486 C28.317,69.069325 28.681,69.9443101 29.082,70.7984859 L12.627,70.7984859 C7.304,70.7984859 5.401,74.9167625 9.9,80.9356296 C19.139,92.5462761 33.462,100 49.542,100 C54.879,100 60.024,99.1775338 64.853,97.6554758 C65.505,97.4325181 66.157,97.2006421 66.806,96.9667843" id="paige-solid"></path>
        </g>
    </g>
</svg>